<svg width="281" height="282" viewBox="0 0 281 282" fill="none" xmlns="http://www.w3.org/2000/svg">
<path d="M253.22 165.952C264.505 147.562 272.197 126.788 275.79 104.806C262.749 54.9429 222.959 16.9514 173.722 5.08128C238.969 51.4315 251.424 127.374 253.22 165.952Z" fill="#FBBF24"/>
<path d="M195.035 43.6917C179.612 25.3014 161.22 11.0489 138.652 0.976074C90.5846 1.56222 46.6585 26.5129 21.1222 67.4329C72.1943 31.2364 136.895 28.2689 195.035 43.6917Z" fill="#FBBF24"/>
<path d="M36.5865 193.861C37.7588 212.251 42.5221 230.643 50.2527 247.862C84.6905 276.95 131.547 288.235 176.685 276.367C106.011 269.22 57.9449 220.569 36.5865 193.861Z" fill="#FBBF24"/>
<path d="M27.1027 222.955C10.469 152.906 41.9415 90.5884 61.5405 61.5379C41.353 69.8548 23.549 81.7254 7.53995 97.1482C-6.12627 138.068 -0.190114 185.549 27.1027 222.955Z" fill="#FBBF24"/>
<path d="M155.279 258.562C173.086 262.702 190.89 264.498 209.866 262.702C253.207 237.791 280.5 191.482 280.5 141.619C254.38 212.84 189.094 245.482 155.279 258.562Z" fill="#FBBF24"/>
<circle cx="140.488" cy="140.996" r="92.4234" fill="#E7E5E4"/>
<path fill-rule="evenodd" clip-rule="evenodd" d="M207.238 140.995C207.238 177.86 177.352 207.746 140.488 207.746C103.623 207.746 73.7373 177.86 73.7373 140.995C73.7373 104.13 103.623 74.2451 140.488 74.2451C157.755 74.2451 173.492 80.8005 185.342 91.5611C184.464 91.4308 183.562 91.3606 182.646 91.3606C172.943 91.3606 165.08 99.0224 165.08 108.476C165.08 117.93 172.943 125.591 182.646 125.591C191.528 125.591 198.87 119.166 200.047 110.826C204.644 119.889 207.238 130.138 207.238 140.995ZM128.191 173.515C134.981 173.515 140.488 168.149 140.488 161.534C140.488 154.918 134.981 149.553 128.191 149.553C121.402 149.553 115.895 154.918 115.895 161.534C115.895 168.149 121.402 173.515 128.191 173.515Z" fill="#44403C"/>
</svg>
