<svg width="150" height="53" viewBox="0 0 150 53" fill="none" xmlns="http://www.w3.org/2000/svg">
<path d="M19.8508 14.074V20.3234C18.0918 18.9809 15.9392 18.3097 13.3932 18.3097C11.2175 18.3097 9.52783 18.7495 8.32425 19.629C7.12067 20.4622 6.51888 21.6658 6.51888 23.2397C6.51888 26.295 8.78717 27.8226 13.3237 27.8226H22.4895V14.5601C22.4895 8.95881 19.7583 6.15817 14.2959 6.15817H3.1859V0.325439H14.643C19.1333 0.325439 22.582 1.43644 24.9892 3.65843C27.3964 5.88042 28.5999 9.07454 28.5999 13.2408V33.6553H13.1154C9.18065 33.6553 6.05597 32.7758 3.74139 31.0167C1.42682 29.2576 0.269531 26.6885 0.269531 23.3092C0.269531 19.9299 1.49626 17.3607 3.94971 15.6016C6.40316 13.8426 9.48154 12.963 13.1849 12.963C15.268 12.963 17.49 13.3334 19.8508 14.074Z" fill="white"/>
<path d="M31.0254 33.6553V14.699C31.0254 9.37543 32.0206 5.69525 34.0112 3.65843C34.9833 2.64001 36.1637 1.8762 37.5525 1.367C38.9412 0.857792 40.1448 0.556897 41.1632 0.464314C42.2279 0.371731 43.6629 0.325439 45.4683 0.325439H51.5788V6.15817H44.2184C43.2926 6.15817 42.5751 6.18131 42.0659 6.22761C41.5567 6.2739 40.9549 6.43592 40.2605 6.71367C39.5661 6.99142 38.9643 7.43119 38.4551 8.03298C37.5756 9.14397 37.1358 11.366 37.1358 14.699V33.6553H31.0254Z" fill="white"/>
<path d="M67.3899 33.6553C62.8533 33.6553 58.9648 32.1277 55.7244 29.0725C52.484 26.0172 50.8638 22.1056 50.8638 17.3376C50.8638 12.5233 52.484 8.49589 55.7244 5.25549C59.0111 1.96879 63.0616 0.325439 67.8759 0.325439H84.1937V32.6832C84.1937 34.7663 83.9159 36.6411 83.3604 38.3076C82.8512 39.9741 82.1106 41.386 81.1384 42.5433C80.1663 43.7006 79.2868 44.6033 78.4998 45.2513C77.7129 45.8994 76.7639 46.5707 75.6529 47.265C72.7828 48.7464 69.2878 49.487 65.1679 49.487H57.3909V43.6543H64.5429C68.6166 43.6543 71.5098 43.1451 73.2226 42.1267C76.3704 40.3676 77.9443 37.4512 77.9443 33.3776V6.15817H67.8759C64.5892 6.15817 61.9738 7.17658 60.0295 9.21341C58.0853 11.2502 57.1131 13.9583 57.1131 17.3376C57.1131 20.578 58.1084 23.1472 60.099 25.0451C62.1358 26.8968 64.5661 27.8226 67.3899 27.8226C70.4451 27.8226 73.13 26.9893 75.4446 25.3229V31.5722C72.9448 32.961 70.2599 33.6553 67.3899 33.6553Z" fill="white"/>
<path d="M147.932 0.325439V6.15817H135.641C134.299 6.15817 133.142 6.41277 132.169 6.92198C131.197 7.43119 130.711 8.14871 130.711 9.07454C130.711 9.63003 130.827 10.1392 131.058 10.6022C131.29 11.0188 131.544 11.366 131.822 11.6437C132.146 11.9215 132.609 12.2224 133.211 12.5464C133.859 12.8241 134.345 13.0325 134.669 13.1713C135.039 13.2639 136.521 13.7268 139.113 14.5601C141.705 15.3933 143.627 16.0877 144.876 16.6432C146.126 17.1987 147.075 17.9625 147.723 18.9346C148.418 19.8605 148.857 20.7863 149.043 21.7121C149.228 22.5917 149.32 23.4712 149.32 24.3507C149.32 30.5538 145.062 33.6553 136.544 33.6553H124.531V27.8226H136.544C140.895 27.8226 143.071 26.6653 143.071 24.3507C143.071 23.2397 142.423 22.3139 141.127 21.5732C139.877 20.8326 138.326 20.2076 136.475 19.6984C134.669 19.1892 132.841 18.6106 130.989 17.9625C129.184 17.2681 127.633 16.1803 126.337 14.699C125.087 13.1713 124.462 11.2965 124.462 9.07454C124.462 6.25075 125.55 4.0982 127.725 2.61687C129.901 1.08925 132.54 0.325439 135.641 0.325439H147.932Z" fill="white"/>
<path d="M118.459 20.2447C119.822 18.0243 120.75 15.5162 121.184 12.862C119.61 6.84174 114.806 2.25474 108.861 0.82158C116.738 6.41779 118.242 15.5869 118.459 20.2447Z" fill="#FBBF24"/>
<path d="M111.434 5.48329C109.572 3.2629 107.351 1.5421 104.626 0.325928C98.823 0.396697 93.5195 3.40918 90.4363 8.34976C96.6026 3.97948 104.414 3.62119 111.434 5.48329Z" fill="#FBBF24"/>
<path d="M92.3034 23.6144C92.4449 25.8348 93.02 28.0554 93.9534 30.1342C98.1113 33.6463 103.769 35.0088 109.218 33.5759C100.685 32.713 94.8821 26.839 92.3034 23.6144Z" fill="#FBBF24"/>
<path d="M91.1583 27.1271C89.15 18.6696 92.9499 11.1455 95.3163 7.638C92.8789 8.64216 90.7293 10.0754 88.7964 11.9375C87.1464 16.8781 87.8631 22.6108 91.1583 27.1271Z" fill="#FBBF24"/>
<path d="M106.634 31.4262C108.784 31.926 110.934 32.1428 113.225 31.926C118.458 28.9183 121.753 23.3271 121.753 17.3068C118.599 25.9058 110.717 29.8469 106.634 31.4262Z" fill="#FBBF24"/>
<circle cx="104.848" cy="17.2312" r="11.159" fill="#E7E5E4"/>
<path fill-rule="evenodd" clip-rule="evenodd" d="M112.908 17.2314C112.908 21.6824 109.299 25.2906 104.848 25.2906C100.397 25.2906 96.7891 21.6824 96.7891 17.2314C96.7891 12.7804 100.397 9.17212 104.848 9.17212C106.933 9.17212 108.833 9.96359 110.264 11.2628C110.158 11.2471 110.049 11.2386 109.938 11.2386C108.767 11.2386 107.818 12.1637 107.818 13.3051C107.818 14.4465 108.767 15.3715 109.938 15.3715C111.011 15.3715 111.897 14.5958 112.039 13.5888C112.594 14.683 112.908 15.9204 112.908 17.2314ZM103.364 21.1577C104.183 21.1577 104.848 20.5099 104.848 19.7111C104.848 18.9124 104.183 18.2646 103.364 18.2646C102.544 18.2646 101.879 18.9124 101.879 19.7111C101.879 20.5099 102.544 21.1577 103.364 21.1577Z" fill="#44403C"/>
<path d="M88.2294 41.5435V40.4127H93.8831V41.5435H91.6602V49.4072H90.4524V41.5435H88.2294ZM97.9979 43.1111C99.4541 43.1711 100.182 43.775 100.182 44.9228C100.182 46.3534 99.2443 47.0687 97.3683 47.0687H96.8414V46.0793H97.4582C98.0321 46.0793 98.4305 45.9936 98.6532 45.8223C98.8759 45.6424 98.9873 45.3469 98.9873 44.9357C98.9873 44.6701 98.8888 44.4731 98.6917 44.3446C98.4947 44.2076 98.242 44.139 97.9336 44.139C97.3254 44.139 96.8457 44.3532 96.4945 44.7815C96.1519 45.2098 95.9805 45.7238 95.9805 46.3234C95.9805 46.9573 96.1647 47.4713 96.5331 47.8653C96.91 48.2594 97.3982 48.4564 97.9979 48.4564C98.5376 48.4564 98.9787 48.3236 99.3214 48.0581L100.092 48.8162C99.5012 49.2959 98.8031 49.5357 97.9979 49.5357C97.0213 49.5357 96.2418 49.2488 95.6593 48.6748C95.0768 48.1009 94.7856 47.3599 94.7856 46.4519C94.7856 45.4411 95.0725 44.623 95.6465 43.9977C96.2204 43.3724 97.0042 43.0768 97.9979 43.1111ZM105.68 48.0581L106.451 48.8162C105.86 49.2959 105.183 49.5357 104.421 49.5357C103.47 49.5357 102.708 49.2316 102.134 48.6234C101.56 48.0067 101.273 47.24 101.273 46.3234C101.273 45.424 101.573 44.6659 102.172 44.0491C102.781 43.4238 103.53 43.1111 104.421 43.1111C105.183 43.1111 105.86 43.3509 106.451 43.8306L105.693 44.6016C105.333 44.3275 104.909 44.1904 104.421 44.1904C103.83 44.1904 103.359 44.3874 103.008 44.7815C102.665 45.167 102.494 45.6809 102.494 46.3234C102.494 46.9659 102.665 47.4841 103.008 47.8782C103.359 48.2636 103.83 48.4564 104.421 48.4564C104.918 48.4564 105.338 48.3236 105.68 48.0581ZM107.603 43.2396H109.826C110.777 43.2396 111.458 43.3809 111.869 43.6636C112.238 43.912 112.469 44.2118 112.563 44.5631C112.666 44.9057 112.717 45.3597 112.717 45.9251V49.4072H111.586V45.9379C111.586 45.7837 111.582 45.6552 111.574 45.5524C111.565 45.4411 111.535 45.304 111.484 45.1413C111.432 44.9699 111.359 44.8329 111.265 44.7301C111.171 44.6187 111.034 44.5245 110.854 44.4474C110.674 44.3618 110.456 44.3189 110.199 44.3189H108.734V49.4072H107.603V43.2396ZM114.971 44.0491C115.571 43.4238 116.321 43.1111 117.22 43.1111C117.657 43.1111 118.064 43.1968 118.441 43.3681C118.826 43.5308 119.16 43.7578 119.443 44.0491C119.734 44.3403 119.961 44.683 120.124 45.077C120.287 45.4625 120.368 45.878 120.368 46.3234C120.368 46.7688 120.287 47.1886 120.124 47.5826C119.97 47.9681 119.751 48.3065 119.469 48.5977C119.186 48.889 118.852 49.1203 118.466 49.2916C118.081 49.4543 117.666 49.5357 117.22 49.5357C116.766 49.5357 116.346 49.4543 115.961 49.2916C115.584 49.1203 115.254 48.889 114.971 48.5977C114.689 48.3065 114.466 47.9681 114.303 47.5826C114.149 47.1886 114.072 46.7688 114.072 46.3234C114.072 45.4154 114.372 44.6573 114.971 44.0491ZM117.22 44.1904C116.62 44.1904 116.136 44.3874 115.768 44.7815C115.408 45.1755 115.228 45.6895 115.228 46.3234C115.228 46.9573 115.408 47.4713 115.768 47.8653C116.136 48.2594 116.62 48.4564 117.22 48.4564C117.828 48.4564 118.312 48.2594 118.672 47.8653C119.032 47.4627 119.212 46.9487 119.212 46.3234C119.212 45.6981 119.032 45.1884 118.672 44.7943C118.312 44.3917 117.828 44.1904 117.22 44.1904ZM121.718 46.9659V40.4127H122.875V46.9659C122.875 47.2742 122.909 47.527 122.978 47.724C123.055 47.9124 123.17 48.0495 123.324 48.1351C123.479 48.2122 123.629 48.2636 123.774 48.2893C123.92 48.315 124.113 48.3279 124.352 48.3279V49.4072C123.393 49.4072 122.712 49.2231 122.309 48.8547C121.915 48.4864 121.718 47.8567 121.718 46.9659ZM125.888 44.0491C126.488 43.4238 127.237 43.1111 128.137 43.1111C128.574 43.1111 128.981 43.1968 129.358 43.3681C129.743 43.5308 130.077 43.7578 130.36 44.0491C130.651 44.3403 130.878 44.683 131.041 45.077C131.204 45.4625 131.285 45.878 131.285 46.3234C131.285 46.7688 131.204 47.1886 131.041 47.5826C130.887 47.9681 130.668 48.3065 130.386 48.5977C130.103 48.889 129.769 49.1203 129.383 49.2916C128.998 49.4543 128.582 49.5357 128.137 49.5357C127.683 49.5357 127.263 49.4543 126.878 49.2916C126.501 49.1203 126.171 48.889 125.888 48.5977C125.606 48.3065 125.383 47.9681 125.22 47.5826C125.066 47.1886 124.989 46.7688 124.989 46.3234C124.989 45.4154 125.289 44.6573 125.888 44.0491ZM128.137 44.1904C127.537 44.1904 127.053 44.3874 126.685 44.7815C126.325 45.1755 126.145 45.6895 126.145 46.3234C126.145 46.9573 126.325 47.4713 126.685 47.8653C127.053 48.2594 127.537 48.4564 128.137 48.4564C128.745 48.4564 129.229 48.2594 129.589 47.8653C129.949 47.4627 130.129 46.9487 130.129 46.3234C130.129 45.6981 129.949 45.1884 129.589 44.7943C129.229 44.3917 128.745 44.1904 128.137 44.1904ZM135.501 49.4072C134.661 49.4072 133.942 49.1245 133.342 48.5592C132.742 47.9938 132.442 47.27 132.442 46.3877C132.442 45.4968 132.742 44.7515 133.342 44.1519C133.95 43.5437 134.7 43.2396 135.59 43.2396H138.61V49.2273C138.61 49.6128 138.559 49.9597 138.456 50.2681C138.362 50.5765 138.225 50.8378 138.045 51.0519C137.865 51.2661 137.702 51.4331 137.556 51.5531C137.411 51.673 137.235 51.7972 137.03 51.9257C136.499 52.1998 135.852 52.3369 135.089 52.3369H133.65V51.2575H134.974C135.728 51.2575 136.263 51.1633 136.58 50.9748C137.162 50.6493 137.454 50.1097 137.454 49.3558V44.3189H135.59C134.982 44.3189 134.498 44.5074 134.139 44.8843C133.779 45.2612 133.599 45.7623 133.599 46.3877C133.599 46.9873 133.783 47.4627 134.151 47.8139C134.528 48.1566 134.978 48.3279 135.501 48.3279C136.066 48.3279 136.563 48.1737 136.991 47.8653V49.0217C136.528 49.2787 136.032 49.4072 135.501 49.4072ZM141.885 49.4072H140.754V44.3189H139.7L140.214 43.2396H141.885V49.4072ZM140.702 41.9547C140.591 41.809 140.535 41.6506 140.535 41.4792C140.535 41.3079 140.591 41.1537 140.702 41.0167C140.814 40.871 140.985 40.7982 141.216 40.7982C141.448 40.7982 141.619 40.871 141.73 41.0167C141.842 41.1537 141.897 41.3079 141.897 41.4792C141.897 41.6506 141.842 41.809 141.73 41.9547C141.619 42.0917 141.448 42.1602 141.216 42.1602C140.985 42.1602 140.814 42.0917 140.702 41.9547ZM147.033 45.7837V46.9402C146.707 46.6918 146.309 46.5675 145.838 46.5675C145.435 46.5675 145.123 46.6489 144.9 46.8117C144.677 46.9659 144.566 47.1886 144.566 47.4798C144.566 48.0452 144.986 48.3279 145.825 48.3279H147.521V45.8737C147.521 44.8372 147.016 44.3189 146.005 44.3189H143.949V43.2396H146.069C146.9 43.2396 147.538 43.4452 147.984 43.8563C148.429 44.2675 148.652 44.8586 148.652 45.6295V49.4072H145.787C145.058 49.4072 144.48 49.2445 144.052 48.919C143.624 48.5934 143.409 48.118 143.409 47.4927C143.409 46.8674 143.636 46.3919 144.09 46.0664C144.544 45.7409 145.114 45.5781 145.799 45.5781C146.185 45.5781 146.596 45.6467 147.033 45.7837Z" fill="white"/>
</svg>
