<svg width="89" height="89" viewBox="0 0 89 89" fill="none" xmlns="http://www.w3.org/2000/svg">
<rect width="89" height="89" rx="44.5" fill="#0F172A"/>
<path d="M23.4523 27.4662C23.4523 27.2064 23.1895 27.0293 22.9511 27.1324C15.6153 30.3061 10.4824 37.6086 10.4824 46.11C10.4824 57.5245 19.7357 66.7778 31.1502 66.7778C42.5647 66.7778 51.818 57.5245 51.818 46.11C51.818 37.572 46.6408 30.2432 39.2544 27.0917C39.0162 26.99 38.7548 27.1671 38.7548 27.4261V36.3025C38.7548 36.4147 38.8064 36.5205 38.8934 36.5913C41.6558 38.8412 43.4202 42.2696 43.4202 46.11C43.4202 52.8866 37.9268 58.3801 31.1502 58.3801C24.3736 58.3801 18.8802 52.8866 18.8802 46.11C18.8802 42.3117 20.6061 38.9164 23.3165 36.6658C23.4018 36.5949 23.4523 36.4901 23.4523 36.3792V27.4662Z" fill="#FBBF24"/>
<rect x="26.998" y="20.9644" width="8.21113" height="16.9821" rx="0.733862" fill="#FBBF24"/>
<circle cx="56.5647" cy="45.9831" r="20.3777" stroke="url(#paint0_angular_101_126)" stroke-width="3.1512"/>
<path fill-rule="evenodd" clip-rule="evenodd" d="M55.1987 55.322C55.1987 56.1126 55.7834 56.7946 56.574 56.8015C56.6058 56.8018 56.6376 56.8019 56.6694 56.8019C62.5867 56.8019 67.3835 52.0051 67.3835 46.0878C67.3835 40.1706 62.5867 35.3738 56.6694 35.3738C56.6376 35.3738 56.6058 35.3739 56.574 35.3742C55.7834 35.3811 55.1987 36.0631 55.1987 36.8537V55.322Z" fill="white"/>
<path d="M51.8202 46.5106C51.8253 46.3227 51.8278 46.1343 51.8278 45.9452C51.8278 37.4072 46.6506 30.0784 39.2642 26.9268C39.026 26.8252 38.7646 27.0023 38.7646 27.2613V36.1376C38.7646 36.2498 38.8162 36.3556 38.9032 36.4265C41.6656 38.6763 43.4301 42.1047 43.4301 45.9452C43.4301 46.1347 43.4258 46.3232 43.4173 46.5106H51.8202Z" fill="#FBBF24"/>
<defs>
<radialGradient id="paint0_angular_101_126" cx="0" cy="0" r="1" gradientUnits="userSpaceOnUse" gradientTransform="translate(56.5647 45.9831) rotate(90) scale(21.9533)">
<stop offset="0.245136"/>
<stop offset="0.580705" stop-color="#551475"/>
<stop offset="0.940027" stop-color="#6E86F1"/>
</radialGradient>
</defs>
</svg>
